<svg width="15" height="15" viewBox="0 0 15 15" fill="none" xmlns="http://www.w3.org/2000/svg">
<path d="M13.5 1.34715L9.89685 1.34717V0.450106C9.89685 0.201422 9.69548 0 9.44685 0C9.19823 0 8.99685 0.201422 8.99685 0.450106V1.34694H5.39685V0.450106C5.39685 0.201422 5.19548 0 4.94685 0C4.69823 0 4.49685 0.201422 4.49685 0.450106V1.34694H0.9C0.402975 1.34694 0 1.75001 0 2.24715V13.4998C0 13.9969 0.402975 14.4 0.9 14.4H13.5C13.997 14.4 14.4 13.9969 14.4 13.4998V2.24715C14.4 1.75022 13.997 1.34715 13.5 1.34715ZM13.5 13.4998H0.9V2.24715H4.49685V2.70063C4.49685 2.9493 4.69823 3.15074 4.94685 3.15074C5.19548 3.15074 5.39685 2.9493 5.39685 2.70063V2.24738H8.99685V2.70086C8.99685 2.94954 9.19823 3.15096 9.44685 3.15096C9.69548 3.15096 9.89685 2.94954 9.89685 2.70086V2.24738H13.5V13.4998ZM10.35 7.19852H11.25C11.4984 7.19852 11.7 6.99688 11.7 6.74842V5.84821C11.7 5.59975 11.4984 5.3981 11.25 5.3981H10.35C10.1016 5.3981 9.9 5.59975 9.9 5.84821V6.74842C9.9 6.99688 10.1016 7.19852 10.35 7.19852ZM10.35 10.7991H11.25C11.4984 10.7991 11.7 10.5977 11.7 10.349V9.44883C11.7 9.20037 11.4984 8.99872 11.25 8.99872H10.35C10.1016 8.99872 9.9 9.20037 9.9 9.44883V10.349C9.9 10.5979 10.1016 10.7991 10.35 10.7991ZM7.65 8.99872H6.75C6.5016 8.99872 6.3 9.20037 6.3 9.44883V10.349C6.3 10.5977 6.5016 10.7991 6.75 10.7991H7.65C7.8984 10.7991 8.1 10.5977 8.1 10.349V9.44883C8.1 9.20059 7.8984 8.99872 7.65 8.99872ZM7.65 5.3981H6.75C6.5016 5.3981 6.3 5.59975 6.3 5.84821V6.74842C6.3 6.99688 6.5016 7.19852 6.75 7.19852H7.65C7.8984 7.19852 8.1 6.99688 8.1 6.74842V5.84821C8.1 5.59952 7.8984 5.3981 7.65 5.3981ZM4.05 5.3981H3.15C2.9016 5.3981 2.7 5.59975 2.7 5.84821V6.74842C2.7 6.99688 2.9016 7.19852 3.15 7.19852H4.05C4.2984 7.19852 4.5 6.99688 4.5 6.74842V5.84821C4.5 5.59952 4.2984 5.3981 4.05 5.3981ZM4.05 8.99872H3.15C2.9016 8.99872 2.7 9.20037 2.7 9.44883V10.349C2.7 10.5977 2.9016 10.7991 3.15 10.7991H4.05C4.2984 10.7991 4.5 10.5977 4.5 10.349V9.44883C4.5 9.20059 4.2984 8.99872 4.05 8.99872Z" fill="#A1A3AB"/>
</svg>
